<svg width="102" height="59" viewBox="0 0 102 59" fill="none" xmlns="http://www.w3.org/2000/svg">
<path d="M75.3715 31.6499C75.3715 31.6499 78.009 35.099 80.9508 31.1935C82.6753 28.8603 82.5232 25.3605 82.5232 25.3605C82.5232 25.3605 80.545 26.375 77.7554 27.5415C74.3571 28.9617 75.3715 31.6499 75.3715 31.6499Z" fill="#225104"/>
<path d="M74.4077 31.65C77.1974 30.9399 79.4798 29.5704 81.2551 27.3894C79.632 29.824 77.451 31.3964 74.6106 32.005L74.4077 31.65Z" fill="#225104"/>
<path d="M75.0164 31.447C75.0164 31.447 80.2406 33.3744 80.6971 27.1357C81.0014 23.4331 78.4147 19.7812 78.4147 19.7812C78.4147 19.7812 76.9945 22.2158 74.7628 25.4112C72.0745 29.266 75.0164 31.447 75.0164 31.447Z" fill="#2E6B07"/>
<path d="M74.002 32.1064C76.538 29.4689 78.0596 26.3749 78.4654 22.8245C78.364 26.5271 77.0959 29.7225 74.4584 32.36L74.002 32.1064Z" fill="#3CA200"/>
<path d="M2.73877 1.16656H15.8755V3.75334H5.37626V11.9701H15.8755V14.5569H5.37626V27.4401H2.73877V1.16656Z" fill="#663300"/>
<path d="M35.8091 20.9985L37.8886 22.1144C37.1785 23.4838 36.4177 24.549 35.5047 25.4112C34.5918 26.2735 33.5773 26.8821 32.4615 27.2879C31.3456 27.7444 30.0269 27.9473 28.6067 27.9473C25.462 27.9473 22.9766 26.9329 21.2014 24.8533C19.4262 22.7737 18.5132 20.4406 18.5132 17.8031C18.5132 15.3178 19.274 13.1367 20.7956 11.2093C22.723 8.77474 25.2591 7.55743 28.5052 7.55743C31.8021 7.55743 34.4396 8.82546 36.4177 11.3108C37.8379 13.086 38.548 15.3178 38.548 17.9552H21.1C21.1507 20.187 21.8608 22.0636 23.281 23.4838C24.7011 24.904 26.3749 25.6648 28.4545 25.6648C29.4182 25.6648 30.3819 25.5127 31.3456 25.1576C32.2586 24.8026 33.0701 24.3461 33.7295 23.7882C34.3381 23.1795 35.0482 22.2665 35.8091 20.9985ZM35.8091 15.7742C35.454 14.4555 34.9975 13.3904 34.3381 12.5788C33.6788 11.7673 32.8672 11.1586 31.8021 10.6514C30.737 10.1442 29.6718 9.94132 28.5052 9.94132C26.5778 9.94132 24.9548 10.55 23.5853 11.7673C22.5709 12.6803 21.8101 13.999 21.3028 15.7742H35.8091Z" fill="#663300"/>
<path d="M42.3013 0.507202H44.7866V27.3893H42.3013V0.507202Z" fill="#663300"/>
<path d="M50.7718 0C51.3297 0 51.8369 0.202884 52.2427 0.608652C52.6484 1.01442 52.8513 1.52163 52.8513 2.07956C52.8513 2.63749 52.6484 3.1447 52.2427 3.49975C51.8369 3.90552 51.3297 4.1084 50.7718 4.1084C50.2138 4.1084 49.7573 3.90552 49.3516 3.49975C48.9458 3.1447 48.7429 2.63749 48.7429 2.07956C48.7429 1.52163 48.9458 1.01442 49.3516 0.608652C49.7573 0.202884 50.2138 0 50.7718 0ZM49.5545 8.01392H52.0398V27.4401H49.5545V8.01392Z" fill="#663300"/>
<path d="M55.0322 8.01392H58.0247L63.1983 15.1149L68.3211 8.01392H71.3136L64.7199 17.1944L72.1759 27.4401H69.1326L63.249 19.274L57.3653 27.4401H54.3728L61.7274 17.2451L55.0322 8.01392Z" fill="#663300"/>
<path d="M0 52.9527L2.23173 51.634C3.80408 54.5251 5.63003 55.9453 7.65888 55.9453C8.52113 55.9453 9.38339 55.7424 10.1442 55.3366C10.905 54.9309 11.5137 54.3729 11.9194 53.6628C12.3252 52.9527 12.5281 52.2427 12.5281 51.4818C12.5281 50.6196 12.2238 49.7573 11.6151 48.8951C10.8036 47.7285 9.28195 46.3083 7.10094 44.6852C4.91994 43.0114 3.55047 41.8448 2.99254 41.084C2.07956 39.8667 1.62307 38.4973 1.62307 37.0771C1.62307 35.9105 1.87668 34.8961 2.43461 33.9324C2.99254 32.9687 3.75336 32.2586 4.76778 31.7006C5.7822 31.1427 6.84734 30.8891 8.01392 30.8891C9.23123 30.8891 10.3978 31.1934 11.463 31.8021C12.5281 32.4107 13.6947 33.5266 14.8613 35.2004L12.731 36.8235C11.7673 35.5047 10.905 34.6425 10.1949 34.2367C9.48483 33.8309 8.72402 33.628 7.91248 33.628C6.84734 33.628 5.98508 33.9324 5.32571 34.5917C4.66634 35.2511 4.31129 36.0119 4.31129 36.9756C4.31129 37.5336 4.41273 38.0915 4.66634 38.6494C4.91994 39.2073 5.32571 39.7653 5.98508 40.3739C6.34013 40.729 7.45599 41.5912 9.38339 43.0114C11.6658 44.6852 13.1875 46.1561 14.0497 47.4749C14.912 48.7936 15.3178 50.1124 15.3178 51.4311C15.3178 53.3585 14.6077 54.9816 13.1367 56.4018C11.6658 57.822 9.94132 58.4813 7.86176 58.4813C6.28941 58.4813 4.8185 58.0756 3.55047 57.2133C2.33317 56.4018 1.11586 54.9816 0 52.9527Z" fill="#663300"/>
<path d="M17.7524 34.186V31.5992H32.1065V34.186H26.2736V57.8727H23.5854V34.186H17.7524Z" fill="#663300"/>
<path d="M35.3525 31.5992H40.5768C43.4679 31.5992 45.446 31.7006 46.5112 31.9542C48.0835 32.3093 49.3515 33.0701 50.3152 34.2367C51.2789 35.4033 51.7862 36.8742 51.7862 38.548C51.7862 39.9682 51.4311 41.2362 50.7717 42.3013C50.1124 43.3665 49.1487 44.178 47.8806 44.7359C46.6126 45.2939 44.8881 45.5475 42.7071 45.5982L52.1412 57.7712H48.8951L39.4609 45.5982H37.99V57.7712H35.3525V31.5992ZM37.99 34.186V43.1129L42.5042 43.1636C44.2794 43.1636 45.5475 43.0114 46.4097 42.6564C47.272 42.3013 47.8806 41.7941 48.3878 41.084C48.8443 40.3739 49.0979 39.5117 49.0979 38.6494C49.0979 37.7871 48.8443 36.9756 48.3878 36.2655C47.9314 35.5554 47.272 35.0482 46.5112 34.7439C45.7504 34.4396 44.4316 34.2874 42.6564 34.2874H37.99V34.186Z" fill="#663300"/>
<path d="M82.6245 31.5992H85.617L92.3629 42.4535L98.9567 31.6499H102L93.6817 45.3446V57.8727H91.0949V45.2939L82.6245 31.5992Z" fill="#663300"/>
<path d="M82.6754 44.8374C83.284 52.4963 76.386 58.177 68.7271 58.7857C60.7132 59.445 54.018 52.4963 54.7788 44.8374C55.5903 36.8235 60.2567 31.8021 68.7271 30.8891C76.1831 30.0776 82.016 37.2292 82.6754 44.8374Z" fill="#663300"/>
<path d="M81.4071 44.8374C81.7622 51.8369 76.4365 56.4525 69.1834 57.5176C62.2346 58.532 55.1336 51.6847 56.0466 44.8374C56.9596 37.8886 61.1694 32.3093 68.7269 32.1571C75.5742 32.0049 81.0014 37.7871 81.4071 44.8374Z" fill="url(#paint0_radial)"/>
<path d="M79.7336 45.9532C79.9872 38.8016 74.4078 32.715 67.5098 33.7295C62.3362 34.4396 58.7351 37.8379 57.5685 43.6708C56.199 50.6196 62.8942 57.5684 69.7922 55.8946C75.4223 54.5251 79.5307 51.2282 79.7336 45.9532Z" stroke="#C4A56E"/>
<path d="M69.5386 53.7135C63.9086 54.4743 58.6843 49.5037 59.7494 43.9244C60.5103 39.8159 62.742 36.3162 67.7126 35.9611C73.3934 35.5554 78.8713 40.2217 77.5018 45.7503C76.4367 49.9602 74.4078 53.0034 69.5386 53.7135Z" stroke="#C4A56E"/>
<path d="M75.2699 45.6996C75.0163 41.2869 72.1252 37.635 67.7632 38.1929C64.7706 38.548 62.7925 41.084 61.981 43.9751C60.7129 48.4893 65.2271 52.6991 69.4877 51.4818C72.886 50.4674 75.422 48.4386 75.2699 45.6996Z" stroke="#C4A56E"/>
<path d="M69.3864 49.1994C66.4953 50.3152 63.2491 46.9169 64.2128 44.0258C64.8215 42.2506 65.9881 40.6782 67.8647 40.3739C70.908 39.8667 72.8861 42.352 73.0383 45.5475C73.089 47.4749 71.3645 48.4386 69.3864 49.1994Z" stroke="#C4A56E"/>
<path d="M71.3645 45.9025C71.6181 44.3809 69.8936 42.6057 68.3213 42.352C67.4083 42.1999 66.546 43.5186 66.3939 44.4316C66.1403 45.9532 67.4083 48.0328 68.8285 47.4241C70.1979 46.8662 71.2124 46.8662 71.3645 45.9025Z" stroke="#C4A56E"/>
<path d="M59.9521 54.2715L61.4231 51.634L63.8069 50.1631L66.0387 47.6778L63.9591 50.366L61.7274 52.0398L60.4594 54.7787L59.9521 54.2715Z" fill="#663300"/>
<path d="M65.7852 32.005L66.7489 33.9324L66.5968 35.3526L67.5605 37.2293L67.459 39.0552L68.0677 41.5913L67.2561 39.2074L67.1547 37.3307L66.0896 35.7076L66.1403 34.2875L65.0244 32.4615L65.7852 32.005Z" fill="#663300"/>
<path d="M76.183 55.7932L75.2193 53.9672L72.6326 51.2283L74.915 54.2208L75.6758 56.3004L76.183 55.7932Z" fill="#663300"/>
<path d="M69.8428 45.3953C69.8428 45.8011 69.2342 45.9025 68.8284 45.9025C68.4226 45.9025 67.814 45.2939 67.814 44.8881C67.814 44.4823 68.3212 43.3665 68.8284 43.8737C69.3356 44.3809 69.8428 44.9896 69.8428 45.3953Z" stroke="#C4A56E"/>
<defs>
<radialGradient id="paint0_radial" cx="0" cy="0" r="1" gradientUnits="userSpaceOnUse" gradientTransform="translate(68.6764 44.8633) scale(12.7275)">
<stop stop-color="#765029"/>
<stop offset="0.3714" stop-color="#926636"/>
<stop offset="0.7575" stop-color="#A97841"/>
<stop offset="1" stop-color="#B27F45"/>
</radialGradient>
</defs>
</svg>
